# xmcd CD database file
#
# Track frame offsets:
#	150
#	22596
#	48576
#	82184
#	117785
#	136016
#	183571
#	214385
#	243078
#	267353
#
# Disc length: 4026 seconds
#
# Revision: 0
# Processed by: cddbd v1.5.2PL0 Copyright (c) Steve Scherf et al.
# Submitted via: CDex 1.70beta2
#
DISCID=840fb80a
DTITLE=Jazztronik - Keystone
DYEAR=2016
DGENRE=Jazz
TTITLE0=Now
TTITLE1=Metamorphosis
TTITLE2=Lost melody
TTITLE3=DGA
TTITLE4=PeachBoy
TTITLE5=The City Beyond-幻(maboroshi)
TTITLE6=WARP～The warp riders adventures on the dance floor～
TTITLE7=Parade !
TTITLE8=Splash the Blue
TTITLE9=A New Phase of Life
EXTD=YEAR: 2016
EXTT0=
EXTT1=
EXTT2=
EXTT3=
EXTT4=
EXTT5=
EXTT6=
EXTT7=
EXTT8=
EXTT9=
PLAYORDER=
